<?xml version="1.0" encoding="UTF-8"?>
<svg xmlns="http://www.w3.org/2000/svg" version="1.1" viewBox="0 0 792 612">
  <defs>
    <style>
      .cls-1 {
        fill: #ffc72c;
      }
    </style>
  </defs>
  <!-- Generator: Adobe Illustrator 28.7.1, SVG Export Plug-In . SVG Version: 1.2.0 Build 142)  -->
  <g>
    <g id="Layer_1">
      <rect class="cls-1" x="287.52" y="163.66" width="216" height="288"/>
      <g>
        <path d="M322.31,422.88c-.12.32-.36.88-.84,1.46-.69.8-1.78,1.5-3.36,1.5-2.58,0-4.55-1.89-4.55-5.14s2.14-5.08,4.62-5.08c3.03,0,3.75,2.33,3.97,3l-1.82.48c-.03-.18-.11-.59-.36-.96-.21-.31-.75-.86-1.75-.86-1.58,0-2.69,1.31-2.69,3.39,0,2.22,1.17,3.45,2.7,3.45.91,0,1.46-.44,1.86-.96.32-.42.44-.78.51-1.01l1.71.72ZM338.46,425.84c-1.23,0-2.36-.34-3.35-1.49-.96-1.12-1.3-2.39-1.3-3.61,0-2.98,2.01-5.12,4.67-5.12,2.41,0,4.67,1.79,4.66,5.11-.01,2.79-1.7,5.11-4.69,5.11ZM338.48,417.28c-1.67,0-2.79,1.35-2.79,3.38,0,2.19,1.21,3.5,2.83,3.5,1.21,0,2.77-.88,2.81-3.22.04-1.9-.94-3.66-2.85-3.66ZM364.52,415.86v9.73h-1.78l.17-8-2.1,8h-1.64l-2.11-8,.18,8h-1.78v-9.73h2.65l1.9,7.22,1.86-7.22h2.65ZM386.34,415.86v9.73h-1.78l.16-8-2.09,8h-1.64l-2.11-8,.18,8h-1.78v-9.73h2.65l1.9,7.22,1.86-7.22h2.65ZM400.95,415.86v9.73h-1.79v-9.73h1.79ZM420.17,417.52h-2.69v8.08h-1.82v-8.08h-2.63v-1.65h7.14v1.65ZM438.54,417.52h-2.69v8.08h-1.82v-8.08h-2.63v-1.65h7.14v1.65ZM452.33,417.49v2.29h4.69v1.57h-4.69v2.6h5.47v1.64h-7.27v-9.73h6.92v1.62h-5.13ZM471.57,417.49v2.29h4.69v1.57h-4.69v2.6h5.47v1.64h-7.27v-9.73h6.92v1.62h-5.13Z"/>
        <path d="M313.99,190.13h163.05v62.86h-54.96l54.96,54.96v45.23h-45.23l-54.96-54.96v54.96h-62.86v-163.05Z"/>
        <path d="M315.79,366.42v9.73h-1.79v-9.73h1.79ZM329.18,366.42h1.79v9.73h-1.58l-4.26-6.83.11,6.83h-1.78v-9.73h1.64l4.3,6.88-.22-6.88ZM344.37,368.07h-2.69v8.08h-1.82v-8.08h-2.63v-1.66h7.14v1.66ZM352.35,368.04v2.29h4.69v1.57h-4.69v2.61h5.47v1.64h-7.27v-9.73h6.92v1.62h-5.13ZM364.63,366.42h3.1c1.3.01,2.16.01,3.02.7.61.5,1.08,1.27,1.08,2.4,0,1.86-1.36,2.51-1.92,2.68l2.17,3.96h-2.08l-1.93-3.61h-1.63v3.61h-1.81v-9.73ZM366.43,367.99v3.05h.63c.62,0,.85-.01,1.2-.03.4-.01,1.71-.08,1.71-1.51,0-.2-.01-.92-.77-1.31-.38-.19-.85-.21-1.93-.21h-.84ZM384.67,366.42h1.79v9.73h-1.59l-4.26-6.83.11,6.83h-1.78v-9.73h1.64l4.3,6.88-.22-6.88ZM398.67,374.25h-3.65l-.56,1.91h-1.95l3.28-9.73h2.07l3.32,9.73h-1.95l-.56-1.91ZM398.18,372.66l-1.34-4.48-1.35,4.48h2.69ZM412.48,368.07h-2.69v8.08h-1.82v-8.08h-2.63v-1.66h7.14v1.66ZM420.48,366.42v9.73h-1.79v-9.73h1.79ZM431.75,376.4c-1.23,0-2.36-.35-3.35-1.49-.96-1.12-1.29-2.39-1.29-3.61,0-2.98,2.01-5.13,4.67-5.13,2.41,0,4.67,1.79,4.66,5.12-.01,2.78-1.7,5.11-4.69,5.11ZM431.76,367.83c-1.67,0-2.79,1.35-2.79,3.38,0,2.19,1.21,3.5,2.83,3.5,1.21,0,2.77-.88,2.81-3.23.04-1.9-.94-3.65-2.85-3.65ZM448.75,366.42h1.79v9.73h-1.59l-4.26-6.83.11,6.83h-1.78v-9.73h1.64l4.3,6.88-.22-6.88ZM462.74,374.25h-3.65l-.56,1.91h-1.95l3.28-9.73h2.07l3.33,9.73h-1.94l-.57-1.91ZM462.26,372.66l-1.34-4.48-1.35,4.48h2.69ZM473.18,374.5h3.86v1.66h-5.7v-9.75h1.84v8.09Z"/>
        <path d="M313.99,382.77h13.2c2.51,0,4.91.15,6.52.83,3.52,1.49,4.57,5.1,4.57,7.65,0,.98-.11,3.34-2.02,5.29-1.05,1.13-2.18,1.54-3.41,2.03l6.45,10.69h-9.3l-5.13-9.33h-2.48v9.33h-8.4v-26.48ZM322.39,388.32v6.15h3.49c1.39,0,4.05-.07,4.05-3.04s-2.62-3.11-4.08-3.11h-3.45ZM342.79,382.77h20.96v5.82h-12.58v3.91h11.75v5.75h-11.75v5.25h13.7v5.74h-22.09v-26.48ZM374,400.08c.75,1.16,1.39,2.14,3.68,2.89,1.09.38,2.44.6,3.72.6.68,0,3.98-.07,3.98-1.99,0-.19,0-1.17-1.46-1.65-.94-.34-5.82-1.2-6.91-1.47-2.44-.64-7.21-2.14-7.21-7.7,0-1.17.26-2.37.75-3.42,1.73-3.91,6.2-5.44,10.96-5.44,3.04,0,5.79.6,7.97,1.69,1.99.98,2.97,2.02,3.91,3l-5.25,4.39c-.41-.53-.86-1.12-2-1.73-1.54-.75-3.57-.97-4.92-.97-1.43,0-3,.38-3,1.72,0,1.28,1.35,1.59,3.64,2,5.86,1.02,11.72,2.07,11.72,8.64,0,2.78-1.16,4.73-2.37,5.97-3.34,3.41-8.64,3.41-10.11,3.41-1.99,0-4.09-.19-6.16-.79-4.2-1.2-6.16-3.56-7.36-5.03l6.42-4.13ZM422.96,402.41c-.67,1.28-1.31,2.48-2.59,3.75-2.71,2.66-6.5,3.9-10.29,3.9-9.46,0-13.74-7.14-13.74-13.93s4.77-14.35,13.74-14.35c4.02,0,7.85,1.43,10.62,4.28,1.13,1.16,1.65,2.06,2.22,3.11l-7.02,3.46c-.68-1.55-1.95-4.36-5.48-4.36-1.84,0-3,.86-3.57,1.42-1.99,1.89-1.99,4.89-1.99,5.94,0,3.94,1.46,7.66,5.59,7.66,3.9,0,5.07-3.45,5.37-4.35l7.13,3.46ZM426.27,382.77h8.38v16.53c0,1.13.04,2.29.98,3.19.68.72,1.69.98,2.67.98,1.31,0,2.18-.49,2.67-.94.97-.93,1.01-2.1,1.01-3.23v-16.53h8.45v14.09c0,3.04,0,6.98-3.11,9.95-1.92,1.8-4.99,3.15-9.08,3.15s-7.29-1.28-9.24-3.15c-2.6-2.55-2.64-5.52-2.71-8.3v-15.74ZM454.96,382.77h20.96v5.82h-12.55v3.91h11.72v5.75h-11.72v5.25h13.67v5.74h-22.08v-26.48Z"/>
      </g>
    </g>
  </g>
</svg>